{"title":"The Sicilian Girl 2009 DVDrip Italian Klam","uid":6186165,"size":1740625527,"categoryP":"video","categoryS":"movies","magnet":"?xt=urn:btih:86d1438bc9ebb718e0d5289aea0e876995324537&amp;dn=The+Sicilian+Girl+2009+DVDrip+Italian+Klam&amp;tr=udp%3A%2F%2Ftracker.openbittorrent.com%3A80&amp;tr=udp%3A%2F%2Fopen.demonii.com%3A1337&amp;tr=udp%3A%2F%2Ftracker.coppersurfer.tk%3A6969&amp;tr=udp%3A%2F%2Fexodus.desync.com%3A6969","seeders":0,"leechers":1,"uploader":"Klambake","files":-1,"time":1298114992,"description":"With: Veronica D'Agostino, GÃƒÂ©rard Jugnot and Francesco Casisa\n\nInspired to a true story, on November 5th 1991, Rita Atria a young 17-year-old Sicilian girl, goes to see an anti-Mafia judge Paolo Borsellino to denounce the Mafia system that was responsible for the murder of her father and her brother. It is the first time that such a young woman from a Mafia family rebels and betrays the Mafia. From that moment on, Rita's days are numbered. She only has nine months to live...\n\nGeneral:\n\nComplete name                    : The Sicilian Girl\\La Siciliana Ribelle.avi\nFormat                           : AVI\nFormat/Info                      : Audio Video Interleave\nFile size                        : 1.62 GiB\nDuration                         : 1h 47mn\nOverall bit rate                 : 2 150 Kbps\n\nVideo:\n\nFormat                           : MPEG-4 Visual\nFormat profile                   : Simple@L3\nFormat settings, BVOP            : No\nFormat settings, QPel            : No\nFormat settings, GMC             : No warppoints\nFormat settings, Matrix          : Default (H.263)\nCodec ID                         : XVID\nCodec ID/Hint                    : XviD\nDuration                         : 1h 47mn\nBit rate                         : 1 691 Kbps\nWidth                            : 652 pixels\nHeight                           : 352 pixels\nDisplay aspect ratio             : 1.852\nFrame rate                       : 25.000 fps\nColor space                      : YUV\nChroma subsampling               : 4:2:0\nBit depth                        : 8 bits\nScan type                        : Progressive\nBits/(Pixel*Frame)               : 0.295\nStream size                      : 1.27 GiB (79%)\nWriting library                  : XviD 1.1.2 (UTC 2006-11-01)\n\nAudio:\n\nFormat                           : AC-3\nFormat/Info                      : Audio Coding 3\nMode extension                   : CM (complete main)\nCodec ID                         : 2000\nDuration                         : 1h 47mn\nBit rate mode                    : Constant\nBit rate                         : 448 Kbps\nChannel(s)                       : 6 channels\nChannel positions                : Front: L C R, Side: L R, LFE\nSampling rate                    : 48.0 KHz\nBit depth                        : 16 bits\nStream size                      : 346 MiB (21%)\nAlignment                        : Aligned on interleaves\nInterleave, duration             : 32 ms (0.80 video frame)\n\n\n","torrent":{"xt":"urn:btih:86d1438bc9ebb718e0d5289aea0e876995324537","amp;dn":"The+Sicilian+Girl+2009+DVDrip+Italian+Klam","amp;tr":["udp%3A%2F%2Ftracker.openbittorrent.com%3A80","udp%3A%2F%2Fopen.demonii.com%3A1337","udp%3A%2F%2Ftracker.coppersurfer.tk%3A6969","udp%3A%2F%2Fexodus.desync.com%3A6969"],"infoHash":"86d1438bc9ebb718e0d5289aea0e876995324537","infoHashBuffer":{"type":"Buffer","data":[134,209,67,139,201,235,183,24,224,213,40,154,234,14,135,105,149,50,69,55]},"announce":[],"urlList":[]}}